<?xml version="1.0" encoding="iso-8859-1"?>
<!-- Generator: Adobe Illustrator 19.0.0, SVG Export Plug-In . SVG Version: 6.00 Build 0)  -->
<svg version="1.1" id="Layer_1" xmlns="http://www.w3.org/2000/svg" xmlns:xlink="http://www.w3.org/1999/xlink" x="0px" y="0px"
	 viewBox="0 0 512 512" style="enable-background:new 0 0 512 512;" xml:space="preserve">
<g transform="translate(0 1)">
	<g>
		<g>
			<path d="M256-1C114.347-1,0,114.2,0,255s114.347,256,256,256c140.8,0,256-115.2,256-256S397.653-1,256-1z M256,493.933
				c-131.413,0-238.933-107.52-238.933-238.933S124.587,16.067,256,16.067S494.933,123.587,494.933,255S387.413,493.933,256,493.933
				z"/>
			<path d="M256,33.133c-122.027,0-221.867,99.84-221.867,221.867S133.973,476.867,256,476.867S477.867,377.027,477.867,255
				S378.027,33.133,256,33.133z M256,459.8c-112.64,0-204.8-92.16-204.8-204.8S143.36,50.2,256,50.2S460.8,142.36,460.8,255
				S368.64,459.8,256,459.8z"/>
			<path d="M256,212.333c-23.893,0-42.667,18.773-42.667,42.667c0,23.893,18.773,42.667,42.667,42.667
				c23.04,0,42.667-18.773,42.667-42.667C298.667,231.107,279.893,212.333,256,212.333z M256,280.6c-14.507,0-25.6-11.093-25.6-25.6
				c0-14.507,11.093-25.6,25.6-25.6c13.653,0,25.6,11.093,25.6,25.6C281.6,269.507,270.507,280.6,256,280.6z"/>
			<path d="M381.44,129.56c-3.413-3.413-8.533-3.413-11.947,0l-65.411,65.411C290.954,184.469,274.265,178.2,256,178.2
				s-34.954,6.269-48.082,16.771l-65.411-65.411c-3.413-3.413-8.533-3.413-11.947,0s-3.413,8.533,0,11.947l65.411,65.411
				C185.469,220.047,179.2,236.735,179.2,255c0,18.265,6.269,34.954,16.771,48.082l-65.411,65.411
				c-3.413,3.413-3.413,8.533,0,11.947c1.707,1.707,3.413,2.56,5.973,2.56c1.707,0,4.267-0.853,5.973-2.56l65.411-65.411
				C221.046,325.531,237.735,331.8,256,331.8s34.954-6.269,48.082-16.771l65.411,65.411c1.707,1.707,3.413,2.56,5.973,2.56
				c1.707,0,4.267-0.853,5.973-2.56c3.413-3.413,3.413-8.533,0-11.947l-65.411-65.411C326.531,289.954,332.8,273.265,332.8,255
				c0-18.265-6.269-34.953-16.771-48.082l65.411-65.411C384.853,138.093,384.853,132.973,381.44,129.56z M256,314.733
				c-33.28,0-59.733-26.453-59.733-59.733c0-33.28,26.453-59.733,59.733-59.733c32.427,0,59.733,26.453,59.733,59.733
				S289.28,314.733,256,314.733z"/>
		</g>
	</g>
</g>
<g>
</g>
<g>
</g>
<g>
</g>
<g>
</g>
<g>
</g>
<g>
</g>
<g>
</g>
<g>
</g>
<g>
</g>
<g>
</g>
<g>
</g>
<g>
</g>
<g>
</g>
<g>
</g>
<g>
</g>
</svg>
